# xmcd
#
# Track frame offsets: 
#        150
#        23932
#        44942
#        65782
#        87782
#        108842
#        132502
#        155080
#        173800
#        196882
#
# Disc length: 2978 seconds
#
# Revision: 0
# Processed by: cddbd v1.5.2PL0 Copyright (c) Steve Scherf et al.
# Submitted via: ExactAudioCopy v1.0b3
#
DISCID=8f0ba00a
DTITLE=Tuan Vu - Hoa Nang Chieu Xua
DYEAR=1992
DGENRE=
TTITLE0=Xin tron tuoi loan
TTITLE1=Nguoi nhap cuoc
TTITLE2=Dem buon pho thi
TTITLE3=Bong co may
TTITLE4=Gia tu vu khi
TTITLE5=Dem hoa chau
TTITLE6=Nho mot nguoi
TTITLE7=Ngay mai toi ve
TTITLE8=Nho nguoi thuong binh
TTITLE9=Tinh nhu may khoi
EXTD=
EXTT0=
EXTT1=
EXTT2=
EXTT3=
EXTT4=
EXTT5=
EXTT6=
EXTT7=
EXTT8=
EXTT9=
PLAYORDER=
